<svg width="52" height="58" viewBox="0 0 52 58" fill="none" xmlns="http://www.w3.org/2000/svg">
<g filter="url(#filter0_d_1_3)">
<mask id="mask0_1_3" style="mask-type:luminance" maskUnits="userSpaceOnUse" x="15" y="15" width="27" height="26">
<path d="M32.088 15.2778H24.9451C19.6853 15.2778 15.4213 19.3818 15.4213 24.4444V31.3194C15.4213 36.3821 19.6853 40.4861 24.9451 40.4861H32.088C37.3478 40.4861 41.6118 36.3821 41.6118 31.3194V24.4444C41.6118 19.3818 37.3478 15.2778 32.088 15.2778Z" fill="white"/>
</mask>
<g mask="url(#mask0_1_3)">
<path d="M32.088 15.2778H24.9451C19.6853 15.2778 15.4213 19.3818 15.4213 24.4444V31.3194C15.4213 36.3821 19.6853 40.4861 24.9451 40.4861H32.088C37.3478 40.4861 41.6118 36.3821 41.6118 31.3194V24.4444C41.6118 19.3818 37.3478 15.2778 32.088 15.2778Z" fill="white" fill-opacity="0.9"/>
<g filter="url(#filter1_diii_1_3)">
<path d="M25.5738 31.6585C23.4068 29.5727 23.4068 26.1911 25.5738 24.1054L28.5166 21.273L31.4593 24.1054C33.6263 26.1911 33.6263 29.5727 31.4593 31.6585C29.8341 33.2228 27.1991 33.2228 25.5738 31.6585Z" fill="#379ADC"/>
</g>
</g>
</g>
<defs>
<filter id="filter0_d_1_3" x="5.42131" y="12.2778" width="46.1905" height="45.2083" filterUnits="userSpaceOnUse" color-interpolation-filters="sRGB">
<feFlood flood-opacity="0" result="BackgroundImageFix"/>
<feColorMatrix in="SourceAlpha" type="matrix" values="0 0 0 0 0 0 0 0 0 0 0 0 0 0 0 0 0 0 127 0" result="hardAlpha"/>
<feOffset dy="7"/>
<feGaussianBlur stdDeviation="5"/>
<feComposite in2="hardAlpha" operator="out"/>
<feColorMatrix type="matrix" values="0 0 0 0 0.258824 0 0 0 0 0.627451 0 0 0 0 0.941176 0 0 0 0.25 0"/>
<feBlend mode="normal" in2="BackgroundImageFix" result="effect1_dropShadow_1_3"/>
<feBlend mode="normal" in="SourceGraphic" in2="effect1_dropShadow_1_3" result="shape"/>
</filter>
<filter id="filter1_diii_1_3" x="17.9485" y="19.273" width="21.136" height="23.5587" filterUnits="userSpaceOnUse" color-interpolation-filters="sRGB">
<feFlood flood-opacity="0" result="BackgroundImageFix"/>
<feColorMatrix in="SourceAlpha" type="matrix" values="0 0 0 0 0 0 0 0 0 0 0 0 0 0 0 0 0 0 127 0" result="hardAlpha"/>
<feOffset dy="4"/>
<feGaussianBlur stdDeviation="3"/>
<feComposite in2="hardAlpha" operator="out"/>
<feColorMatrix type="matrix" values="0 0 0 0 0.258824 0 0 0 0 0.627451 0 0 0 0 0.941176 0 0 0 0.5 0"/>
<feBlend mode="normal" in2="BackgroundImageFix" result="effect1_dropShadow_1_3"/>
<feBlend mode="normal" in="SourceGraphic" in2="effect1_dropShadow_1_3" result="shape"/>
<feColorMatrix in="SourceAlpha" type="matrix" values="0 0 0 0 0 0 0 0 0 0 0 0 0 0 0 0 0 0 127 0" result="hardAlpha"/>
<feOffset dy="6.52548"/>
<feGaussianBlur stdDeviation="6.52548"/>
<feComposite in2="hardAlpha" operator="arithmetic" k2="-1" k3="1"/>
<feColorMatrix type="matrix" values="0 0 0 0 0.282353 0 0 0 0 0.517647 0 0 0 0 0.933333 0 0 0 0.2 0"/>
<feBlend mode="normal" in2="shape" result="effect2_innerShadow_1_3"/>
<feColorMatrix in="SourceAlpha" type="matrix" values="0 0 0 0 0 0 0 0 0 0 0 0 0 0 0 0 0 0 127 0" result="hardAlpha"/>
<feOffset/>
<feGaussianBlur stdDeviation="1.63137"/>
<feComposite in2="hardAlpha" operator="arithmetic" k2="-1" k3="1"/>
<feColorMatrix type="matrix" values="0 0 0 0 0 0 0 0 0 0 0 0 0 0 0 0 0 0 0.25 0"/>
<feBlend mode="normal" in2="effect2_innerShadow_1_3" result="effect3_innerShadow_1_3"/>
<feColorMatrix in="SourceAlpha" type="matrix" values="0 0 0 0 0 0 0 0 0 0 0 0 0 0 0 0 0 0 127 0" result="hardAlpha"/>
<feOffset dy="-1.63137"/>
<feGaussianBlur stdDeviation="1.63137"/>
<feComposite in2="hardAlpha" operator="arithmetic" k2="-1" k3="1"/>
<feColorMatrix type="matrix" values="0 0 0 0 0 0 0 0 0 0 0 0 0 0 0 0 0 0 0.25 0"/>
<feBlend mode="normal" in2="effect3_innerShadow_1_3" result="effect4_innerShadow_1_3"/>
</filter>
</defs>
</svg>
